<svg width="18" height="15" viewBox="0 0 18 15" fill="none" xmlns="http://www.w3.org/2000/svg">
<path d="M15.2378 1.63829C14.0905 1.11188 12.8602 0.724036 11.5739 0.501906C11.5505 0.497626 11.5271 0.508336 11.515 0.529766C11.3568 0.811176 11.1815 1.1783 11.0588 1.46686C9.6753 1.25973 8.2989 1.25973 6.94374 1.46686C6.82099 1.17189 6.63936 0.811176 6.48043 0.529766C6.46836 0.509056 6.44496 0.498336 6.42154 0.501906C5.13593 0.723326 3.90567 1.11117 2.7577 1.63829C2.74776 1.64258 2.73924 1.64973 2.73359 1.659C0.400037 5.14528 -0.239214 8.54589 0.0743864 11.9043C0.0757964 11.9207 0.0850265 11.9364 0.0977965 11.9464C1.63741 13.0771 3.12878 13.7635 4.59246 14.2185C4.61588 14.2256 4.6407 14.217 4.65561 14.1977C5.00184 13.7249 5.31048 13.2264 5.57511 12.7021C5.59072 12.6714 5.57582 12.635 5.5439 12.6228C5.05435 12.4371 4.5882 12.2107 4.1398 11.9536C4.10433 11.9329 4.10149 11.8821 4.13412 11.8578C4.22848 11.7871 4.32286 11.7136 4.41297 11.6393C4.42927 11.6257 4.45198 11.6229 4.47115 11.6314C7.417 12.9764 10.6062 12.9764 13.5172 11.6314C13.5364 11.6221 13.5591 11.625 13.5761 11.6386C13.6662 11.7129 13.7606 11.7871 13.8557 11.8578C13.8883 11.8821 13.8862 11.9329 13.8507 11.9536C13.4023 12.2157 12.9361 12.4371 12.4459 12.6221C12.414 12.6342 12.3998 12.6714 12.4154 12.7021C12.6857 13.2256 12.9943 13.7242 13.3342 14.197C13.3484 14.217 13.3739 14.2256 13.3973 14.2185C14.8681 13.7635 16.3595 13.0771 17.8991 11.9464C17.9126 11.9364 17.9211 11.9214 17.9225 11.905C18.2978 8.02229 17.2939 4.64959 15.2612 1.65971C15.2562 1.64973 15.2477 1.64258 15.2378 1.63829ZM6.01502 9.85939C5.12812 9.85939 4.39735 9.04509 4.39735 8.04519C4.39735 7.04519 5.11395 6.23099 6.01502 6.23099C6.92315 6.23099 7.6469 7.05229 7.6327 8.04519C7.6327 9.04509 6.91606 9.85939 6.01502 9.85939ZM11.9961 9.85939C11.1092 9.85939 10.3784 9.04509 10.3784 8.04519C10.3784 7.04519 11.095 6.23099 11.9961 6.23099C12.9042 6.23099 13.6279 7.05229 13.6137 8.04519C13.6137 9.04509 12.9042 9.85939 11.9961 9.85939Z" fill="#9B96B0"/>
</svg>
