<svg width="16" height="17" viewBox="0 0 16 17" fill="none" xmlns="http://www.w3.org/2000/svg">
<path d="M8.0007 0.396484C5.82806 0.396484 5.55539 0.405984 4.70205 0.444814C3.85037 0.483814 3.26903 0.618654 2.76036 0.816484C2.23419 1.02081 1.78785 1.29415 1.34318 1.73898C0.89818 2.18365 0.62484 2.62998 0.41984 3.15598C0.2215 3.66481 0.0865001 4.24631 0.0481701 5.09765C0.0100001 5.95098 0 6.22381 0 8.39648C0 10.5692 0.00966983 10.841 0.0483298 11.6943C0.0874998 12.546 0.22234 13.1273 0.42 13.636C0.62451 14.1622 0.89784 14.6085 1.34268 15.0532C1.78719 15.4982 2.23352 15.7722 2.75936 15.9765C3.26837 16.1743 3.84987 16.3092 4.70138 16.3482C5.55472 16.387 5.82723 16.3965 7.9998 16.3965C10.1726 16.3965 10.4444 16.387 11.2978 16.3482C12.1495 16.3092 12.7315 16.1743 13.2405 15.9765C13.7665 15.7722 14.2121 15.4982 14.6567 15.0532C15.1017 14.6085 15.375 14.1622 15.58 13.6362C15.7767 13.1273 15.9117 12.5458 15.9517 11.6945C15.99 10.8412 16 10.5692 16 8.39648C16 6.22381 15.99 5.95115 15.9517 5.09781C15.9117 4.24615 15.7767 3.66481 15.58 3.15615C15.375 2.62998 15.1017 2.18365 14.6567 1.73898C14.2116 1.29398 13.7666 1.02065 13.24 0.816484C12.73 0.618654 12.1483 0.483814 11.2966 0.444814C10.4433 0.405984 10.1716 0.396484 7.9982 0.396484H8.0007ZM7.2831 1.83815C7.4961 1.83781 7.7337 1.83815 8.0007 1.83815C10.1368 1.83815 10.3899 1.84581 11.2335 1.88415C12.0135 1.91981 12.4368 2.05015 12.7188 2.15965C13.0921 2.30465 13.3583 2.47798 13.6381 2.75798C13.9181 3.03798 14.0915 3.30465 14.2368 3.67798C14.3463 3.95965 14.4768 4.38298 14.5123 5.16298C14.5507 6.00631 14.559 6.25965 14.559 8.39468C14.559 10.5297 14.5507 10.783 14.5123 11.6263C14.4767 12.4063 14.3463 12.8297 14.2368 13.1113C14.0918 13.4847 13.9181 13.7505 13.6381 14.0303C13.3581 14.3103 13.0923 14.4837 12.7188 14.6287C12.4371 14.7387 12.0135 14.8687 11.2335 14.9043C10.3901 14.9427 10.1368 14.951 8.0007 14.951C5.86456 14.951 5.61139 14.9427 4.76805 14.9043C3.98804 14.8683 3.5647 14.738 3.28253 14.6285C2.9092 14.4835 2.64253 14.3102 2.36252 14.0302C2.08252 13.7502 1.90919 13.4842 1.76385 13.1107C1.65435 12.829 1.52385 12.4057 1.48835 11.6257C1.45002 10.7823 1.44235 10.529 1.44235 8.39268C1.44235 6.25631 1.45002 6.00431 1.48835 5.16098C1.52402 4.38098 1.65435 3.95765 1.76385 3.67565C1.90885 3.30231 2.08252 3.03565 2.36252 2.75565C2.64253 2.47565 2.9092 2.30231 3.28253 2.15698C3.56454 2.04698 3.98804 1.91698 4.76805 1.88115C5.50606 1.84781 5.79206 1.83781 7.2831 1.83615V1.83815ZM12.2711 3.16648C11.7411 3.16648 11.3111 3.59598 11.3111 4.12615C11.3111 4.65615 11.7411 5.08615 12.2711 5.08615C12.8011 5.08615 13.2311 4.65615 13.2311 4.12615C13.2311 3.59615 12.8011 3.16648 12.2711 3.16648ZM8.0007 4.28815C5.73189 4.28815 3.89237 6.12765 3.89237 8.39648C3.89237 10.6653 5.73189 12.504 8.0007 12.504C10.2696 12.504 12.1085 10.6653 12.1085 8.39648C12.1085 6.12765 10.2695 4.28815 8.0007 4.28815ZM8.0007 5.72981C9.4734 5.72981 10.6674 6.92368 10.6674 8.39648C10.6674 9.86918 9.4734 11.0632 8.0007 11.0632C6.5279 11.0632 5.33406 9.86918 5.33406 8.39648C5.33406 6.92368 6.5279 5.72981 8.0007 5.72981Z" fill="#9B96B0"/>
</svg>
