<svg width="20" height="21" viewBox="0 0 20 21" fill="none" xmlns="http://www.w3.org/2000/svg">
<path d="M17.7672 3.79149C17.7538 3.56214 17.6566 3.34569 17.4942 3.18323C17.3317 3.02078 17.1153 2.92363 16.8859 2.91024C13.7922 2.72821 11.0586 3.09305 8.76093 3.99383C6.56249 4.85555 4.86796 6.19149 3.85858 7.85711C2.48202 10.1313 2.4789 12.8923 3.82343 15.5282L2.46171 16.8899C2.3745 16.9771 2.30533 17.0807 2.25813 17.1946C2.21094 17.3085 2.18665 17.4307 2.18665 17.554C2.18665 17.6773 2.21094 17.7994 2.25813 17.9134C2.30533 18.0273 2.3745 18.1308 2.46171 18.2181C2.63783 18.3942 2.8767 18.4931 3.12577 18.4931C3.2491 18.4931 3.37122 18.4688 3.48516 18.4216C3.5991 18.3744 3.70263 18.3053 3.78983 18.2181L5.15155 16.8563C6.45937 17.5235 7.79843 17.8602 9.09296 17.8602C10.4082 17.8643 11.699 17.5047 12.8226 16.8212C14.4883 15.8118 15.8242 14.1165 16.6859 11.9188C17.5844 9.61961 17.9492 6.88524 17.7672 3.79149ZM11.8484 15.2149C10.2789 16.1657 8.43749 16.2376 6.5578 15.4431L13.1625 8.83836C13.2497 8.75116 13.3189 8.64763 13.3661 8.53369C13.4133 8.41975 13.4376 8.29763 13.4376 8.1743C13.4376 8.05097 13.4133 7.92885 13.3661 7.81491C13.3189 7.70097 13.2497 7.59745 13.1625 7.51024C13.0753 7.42303 12.9718 7.35386 12.8578 7.30666C12.7439 7.25947 12.6218 7.23518 12.4984 7.23518C12.3751 7.23518 12.253 7.25947 12.139 7.30666C12.0251 7.35386 11.9216 7.42303 11.8344 7.51024L5.23437 14.1196C4.44218 12.2446 4.51405 10.3985 5.46874 8.82899C7.10233 6.13133 10.9797 4.63211 15.9375 4.74696C16.0453 9.70321 14.5461 13.5813 11.8484 15.2149Z" fill="black"/>
</svg>
