<svg width="38" height="39" viewBox="0 0 38 39" fill="none" xmlns="http://www.w3.org/2000/svg">
<rect y="0.0769043" width="38" height="38" rx="19" fill="#D25804"/>
<g clip-path="url(#clip0_148_1298)">
<path opacity="0.4" d="M29.2061 23.7024C29.2061 26.64 26.8313 29.0196 23.8734 29.0302H23.8628H13.3567C10.4095 29.0302 8.00293 26.661 8.00293 23.7234V23.7129C8.00293 23.7129 8.00929 19.0526 8.01777 16.7088C8.01883 16.2687 8.52771 16.0223 8.87438 16.296C11.3933 18.2808 15.8979 21.8997 15.9541 21.9471C16.7068 22.5462 17.6609 22.8842 18.6363 22.8842C19.6117 22.8842 20.5658 22.5462 21.3185 21.9356C21.3746 21.8987 25.7785 18.3882 28.3356 16.3708C28.6834 16.096 29.1944 16.3424 29.1954 16.7814C29.2061 19.1074 29.2061 23.7024 29.2061 23.7024Z" fill="white"/>
<path d="M28.6494 12.8924C27.7314 11.174 25.9248 10.0769 23.936 10.0769H13.3556C11.3668 10.0769 9.56028 11.174 8.64218 12.8924C8.43651 13.2768 8.53405 13.7558 8.87648 14.0275L16.7481 20.2809C17.2994 20.7231 17.9673 20.9431 18.6352 20.9431C18.6394 20.9431 18.6426 20.9431 18.6458 20.9431C18.649 20.9431 18.6532 20.9431 18.6564 20.9431C19.3243 20.9431 19.9922 20.7231 20.5435 20.2809L28.4151 14.0275C28.7575 13.7558 28.8551 13.2768 28.6494 12.8924Z" fill="white"/>
</g>
<defs>
<clipPath id="clip0_148_1298">
<rect width="22" height="19" fill="white" transform="translate(8.00293 10.0769)"/>
</clipPath>
</defs>
</svg>
