<svg width="14" height="15" viewBox="0 0 14 15" fill="none" xmlns="http://www.w3.org/2000/svg">
<path d="M3.17805 14.3962V4.95004H0.1769V14.3962H3.17805ZM1.6781 3.66056C2.72445 3.66056 3.37587 2.93521 3.37587 2.02872C3.35628 1.10159 2.72445 0.396484 1.698 0.396484C0.67085 0.396484 0 1.10159 0 2.02864C0 2.93512 0.65118 3.66047 1.65844 3.66047L1.6781 3.66056ZM4.83923 14.3962H7.8401V9.12158C7.8401 8.83968 7.8597 8.55698 7.939 8.35558C8.1559 7.79128 8.6497 7.20718 9.4789 7.20718C10.5646 7.20718 10.9992 8.07328 10.9992 9.34328V14.3962H14V8.98008C14 6.07868 12.5196 4.72858 10.5452 4.72858C8.9264 4.72858 8.2154 5.67518 7.8204 6.31988H7.8404V4.95037H4.83939C4.87856 5.83648 4.83923 14.3962 4.83923 14.3962Z" fill="#9B96B0"/>
</svg>
