<svg width="18" height="16" viewBox="0 0 18 16" fill="none" xmlns="http://www.w3.org/2000/svg">
<path d="M5.66082 15.0306C12.4536 15.0306 16.1683 9.40098 16.1683 4.51921C16.1683 4.35933 16.1651 4.20019 16.1579 4.0417C16.8807 3.5185 17.5045 2.87069 18 2.12865C17.3383 2.42294 16.6262 2.62102 15.8792 2.71032C16.6417 2.25297 17.227 1.52942 17.5032 0.666965C16.7783 1.09716 15.9852 1.40043 15.1582 1.5637C14.4843 0.845604 13.5248 0.396484 12.4625 0.396484C10.4231 0.396484 8.7693 2.05094 8.7693 4.09032C8.7693 4.38026 8.8017 4.66219 8.8651 4.9327C5.79574 4.7782 3.07409 3.30813 1.25261 1.0728C0.92454 1.63659 0.75199 2.27735 0.75256 2.92965C0.75256 4.21138 1.40451 5.34286 2.39598 6.00488C1.80951 5.98688 1.23592 5.82848 0.72344 5.54278C0.72289 5.55828 0.72289 5.57338 0.72289 5.58998C0.72289 7.37908 1.99584 8.87288 3.68565 9.21138C3.36828 9.29788 3.04079 9.34158 2.71185 9.34138C2.4743 9.34138 2.24279 9.31798 2.01779 9.27478C2.48795 10.7427 3.85127 11.8109 5.46765 11.8407C4.20366 12.8318 2.61143 13.4221 0.8809 13.4221C0.58652 13.4223 0.29237 13.4053 0 13.3709C1.63441 14.4189 3.57494 15.0306 5.66082 15.0306Z" fill="#9B96B0"/>
</svg>
