<svg width="28" height="31" viewBox="0 0 28 31" fill="none" xmlns="http://www.w3.org/2000/svg">
<path d="M23.1779 20.3133C24.8977 18.151 25.8254 15.4963 25.8254 12.6919C25.8254 5.91266 20.3092 0.396484 13.53 0.396484C6.75071 0.396484 1.23454 5.91266 1.23454 12.6919C1.23454 15.4963 2.16223 18.151 3.88202 20.3133L0 24.1953L1.01332 25.2085C4.36014 28.5553 8.8059 30.3965 13.53 30.3965C18.254 30.3965 22.6998 28.5553 26.0466 25.2085L27.0599 24.1953L23.1779 20.3133ZM13.53 3.26518C17.2264 3.26518 20.4305 5.39887 21.9791 8.50305L16.6698 13.8123L13.53 10.6724L5.92293 18.2795C4.73834 16.6738 4.0961 14.7328 4.0961 12.6991C4.0961 7.49686 8.32779 3.26518 13.53 3.26518ZM13.5157 24.9659C16.3202 24.9659 18.9962 24.0454 21.1513 22.3327L22.9567 24.1382C20.3021 26.3289 17.0052 27.5207 13.5228 27.5207C10.0404 27.5207 6.74358 26.3289 4.08897 24.1382L5.13083 23.0963L5.89439 22.3327L6.91484 21.3123L7.9353 20.2918L9.33396 18.8932L13.5157 14.7114L16.6556 17.8512L22.8854 11.6215C22.9211 11.9711 22.9424 12.328 22.9424 12.6848C22.9424 15.2038 21.9648 17.573 20.1808 19.3498C18.3967 21.1267 16.0347 22.1116 13.5086 22.1116C12.5095 22.1116 11.5319 21.9545 10.6042 21.6548L9.49096 22.768L8.39914 23.8598C9.98335 24.5877 11.7175 24.9659 13.5157 24.9659Z" fill="white"/>
</svg>
