<svg width="18" height="13" viewBox="0 0 18 13" fill="none" xmlns="http://www.w3.org/2000/svg">
<path d="M9.3988 12.8314L5.70588 12.7639C4.5102 12.7404 3.31154 12.7873 2.13931 12.5435C0.356073 12.1792 0.229733 10.393 0.0975427 8.89469C-0.0846073 6.78829 -0.0140873 4.64359 0.329643 2.5548C0.523693 1.38275 1.28736 0.683367 2.46834 0.607267C6.45503 0.331067 10.4682 0.363797 14.4461 0.492657C14.8662 0.504467 15.2892 0.569037 15.7034 0.642527C17.7483 1.00096 17.7981 3.02514 17.9307 4.72909C18.0629 6.45069 18.007 8.18109 17.7544 9.89089C17.5517 11.3066 17.1638 12.4938 15.5271 12.6084C13.4764 12.7583 11.4728 12.879 9.4164 12.8405C9.4165 12.8314 9.4046 12.8314 9.3988 12.8314ZM7.2277 9.24729C8.7731 8.35999 10.289 7.48749 11.8255 6.60609C10.2772 5.71889 8.7642 4.84639 7.2277 3.965V9.24729Z" fill="#9B96B0"/>
</svg>
