<svg width="46" height="47" viewBox="0 0 46 47" fill="none" xmlns="http://www.w3.org/2000/svg">
<rect y="0.846191" width="46" height="46" rx="13" fill="#D25804"/>
<g clip-path="url(#clip0_137_2069)">
<path d="M23.2422 8.73535C14.3206 8.73535 7.85596 16.0139 7.85596 24.0909C7.85596 26.6706 8.60838 29.3271 9.92895 31.7533C10.1746 32.1525 10.2053 32.6592 10.0364 33.1353L9.00762 36.5749C8.77729 37.4041 9.48364 38.0183 10.2668 37.7726L13.3686 36.8513C14.2131 36.5749 14.8734 36.9281 15.6581 37.4041C17.9 38.7247 20.6932 39.4003 23.2115 39.4003C30.8278 39.4003 38.567 33.5191 38.567 24.0448C38.567 15.8757 31.9641 8.73535 23.2422 8.73535Z" fill="white"/>
<path fill-rule="evenodd" clip-rule="evenodd" d="M16.1022 26.0717C15.0273 26.0717 14.1367 25.1811 14.1367 24.1062C14.1367 23.016 15.012 22.1407 16.1022 22.1407C17.1924 22.1407 18.0677 23.016 18.0677 24.1062C18.0677 25.1811 17.1924 26.0563 16.1022 26.0717ZM23.1816 26.0719C22.0914 26.0566 21.2161 25.1813 21.2161 24.0911C21.2161 23.0162 22.1067 22.1256 23.1816 22.1409C24.2719 22.1409 25.1471 23.0162 25.1471 24.1064C25.1471 25.1813 24.2719 26.0719 23.1816 26.0719ZM28.2948 24.1066C28.2948 25.1815 29.17 26.0721 30.2603 26.0721C31.3505 26.0721 32.2258 25.1815 32.2258 24.1066C32.2258 23.0164 31.3505 22.1411 30.2603 22.1411C29.17 22.1411 28.2948 23.0164 28.2948 24.1066Z" fill="#D25804"/>
</g>
<defs>
<clipPath id="clip0_137_2069">
<rect width="32" height="32" fill="white" transform="translate(7 7.84619)"/>
</clipPath>
</defs>
</svg>
