<svg width="47" height="47" viewBox="0 0 47 47" fill="none" xmlns="http://www.w3.org/2000/svg">
<rect x="0.470215" y="0.125366" width="46" height="46" rx="13" fill="#D25804"/>
<g clip-path="url(#clip0_137_1976)">
<path d="M18.179 19.6934V15.4742C18.179 13.9076 18.7988 12.4052 19.9021 11.2975C21.0054 10.1898 22.5018 9.56744 24.0622 9.56744C25.6225 9.56744 27.1189 10.1898 28.2222 11.2975C29.3256 12.4052 29.9454 13.9076 29.9454 15.4742V19.6934" stroke="white" stroke-opacity="0.4" stroke-width="4" stroke-linecap="round" stroke-linejoin="round"/>
<path d="M32.2282 18.391H15.896C13.6869 18.391 11.896 20.1819 11.896 22.391V35.7266C11.896 37.9357 13.6869 39.7266 15.896 39.7266H32.2282C34.4373 39.7266 36.2282 37.9357 36.2282 35.7266V22.391C36.2282 20.1819 34.4373 18.391 32.2282 18.391Z" fill="white"/>
</g>
<defs>
<clipPath id="clip0_137_1976">
<rect width="25" height="33" fill="white" transform="translate(11.4702 7.12537)"/>
</clipPath>
</defs>
</svg>
