<svg width="47" height="47" viewBox="0 0 47 47" fill="none" xmlns="http://www.w3.org/2000/svg">
<rect x="0.470215" y="0.125366" width="46" height="46" rx="13" fill="#D25804"/>
<g clip-path="url(#clip0_137_1969)">
<path d="M23.0619 41.2388C32.7775 41.2388 40.6536 33.3627 40.6536 23.6471C40.6536 13.9315 32.7775 6.05542 23.0619 6.05542C13.3463 6.05542 5.47021 13.9315 5.47021 23.6471C5.47021 33.3627 13.3463 41.2388 23.0619 41.2388Z" fill="white" fill-opacity="0.4"/>
<path d="M26.5051 12.7832C26.5051 12.3378 25.9665 12.1147 25.6516 12.4297L14.1814 23.8999C14.0609 24.0205 13.9789 24.174 13.9457 24.3412C13.9125 24.5083 13.9296 24.6816 13.9948 24.839C14.06 24.9965 14.1704 25.1311 14.312 25.2258C14.4537 25.3206 14.6202 25.3712 14.7906 25.3714H19.119C19.3951 25.3714 19.619 25.5953 19.619 25.8714V34.5108C19.619 34.9562 20.1575 35.1793 20.4725 34.8643L31.9428 23.3941C32.0632 23.2735 32.1452 23.1199 32.1784 22.9528C32.2116 22.7856 32.1945 22.6124 32.1293 22.4549C32.0641 22.2975 31.9537 22.1629 31.8121 22.0681C31.6704 21.9734 31.5039 21.9227 31.3335 21.9226H27.0051C26.729 21.9226 26.5051 21.6987 26.5051 21.4226V12.7832Z" fill="white"/>
</g>
<defs>
<clipPath id="clip0_137_1969">
<rect width="36" height="37" fill="white" transform="translate(5.47021 5.12537)"/>
</clipPath>
</defs>
</svg>
