<svg width="47" height="47" viewBox="0 0 47 47" fill="none" xmlns="http://www.w3.org/2000/svg">
<rect x="0.470215" y="0.125366" width="46" height="46" rx="13" fill="#D25804"/>
<g clip-path="url(#clip0_137_1961)">
<path opacity="0.4" d="M30.3194 7.12537H15.8186C10.5343 7.12537 7.54028 10.1194 7.54028 15.4037V29.8908C7.54028 35.1751 10.5343 38.1691 15.8186 38.1691H30.3194C35.6038 38.1691 38.584 35.1751 38.584 29.8908V15.4037C38.584 10.1194 35.6038 7.12537 30.3194 7.12537Z" fill="white"/>
<path d="M32.4679 22.02V27.6634H26.8245" stroke="white" stroke-width="2.5" stroke-linecap="round" stroke-linejoin="round"/>
<path d="M32.4678 27.6634L25.8303 21.0259C25.7138 20.9094 25.5756 20.8169 25.4234 20.7538C25.2712 20.6908 25.108 20.6583 24.9433 20.6583C24.7785 20.6583 24.6154 20.6908 24.4632 20.7538C24.3109 20.8169 24.1727 20.9094 24.0562 21.0259L21.441 23.6411C21.3245 23.7576 21.1863 23.8501 21.0341 23.9131C20.8819 23.9762 20.7187 24.0087 20.554 24.0087C20.3892 24.0087 20.2261 23.9762 20.0739 23.9131C19.9216 23.8501 19.7834 23.7576 19.6669 23.6411L13.6565 17.6307" stroke="white" stroke-width="2.5" stroke-linecap="round" stroke-linejoin="round"/>
</g>
<defs>
<clipPath id="clip0_137_1961">
<rect width="32" height="32" fill="white" transform="translate(7.47021 7.12537)"/>
</clipPath>
</defs>
</svg>
