<svg width="46" height="47" viewBox="0 0 46 47" fill="none" xmlns="http://www.w3.org/2000/svg">
<rect y="0.846191" width="46" height="46" rx="13" fill="#D25804"/>
<g clip-path="url(#clip0_137_2053)">
<path d="M23.3521 40.289C23.1512 40.289 22.9503 40.2429 22.7691 40.1491L16.9276 37.1252C15.27 36.2663 13.9734 35.3023 12.9609 34.1793C10.7448 31.7234 9.51183 28.5707 9.49223 25.3003L9.42365 14.5363C9.41548 13.294 10.2173 12.179 11.416 11.759L22.142 8.01942C22.7789 7.79195 23.4893 7.78877 24.1376 8.00828L34.9044 11.6207C36.1096 12.0231 36.9245 13.1302 36.931 14.3709L36.9996 25.1428C37.0209 28.4084 35.8304 31.5738 33.6486 34.0569C32.6475 35.1958 31.3623 36.174 29.721 37.0489L23.9318 40.1411C23.7522 40.2381 23.5529 40.2874 23.3521 40.289Z" fill="white"/>
<path d="M22.107 27.8325C21.7934 27.8341 21.4799 27.7211 21.2382 27.4889L18.1288 24.4985C17.6487 24.034 17.6438 23.28 18.119 22.8124C18.5942 22.3431 19.37 22.3384 19.8517 22.8012L22.089 24.9518L27.5516 19.5658C28.0285 19.0966 28.8042 19.0918 29.2843 19.5547C29.7661 20.0192 29.771 20.7747 29.2958 21.2408L22.9709 27.4778C22.7324 27.7132 22.4205 27.8309 22.107 27.8325Z" fill="#D25804"/>
</g>
<defs>
<clipPath id="clip0_137_2053">
<rect width="28" height="33" fill="white" transform="translate(9 7.84619)"/>
</clipPath>
</defs>
</svg>
