<svg width="46" height="47" viewBox="0 0 46 47" fill="none" xmlns="http://www.w3.org/2000/svg">
<rect y="0.846191" width="46" height="46" rx="13" fill="#D25804"/>
<g clip-path="url(#clip0_137_2060)">
<path opacity="0.4" d="M23.211 42.2787C21.8105 42.2787 20.4118 41.7469 19.3427 40.6852L18.0132 39.3557C17.4978 38.8421 16.8075 38.5579 16.0754 38.5561H14.205C11.1817 38.5561 8.72126 36.0956 8.72126 33.0724V31.2002C8.71944 30.4698 8.43532 29.7796 7.91991 29.2605L6.61227 27.9547C4.47049 25.8257 4.46139 22.3453 6.59223 20.2017L7.92174 18.8704C8.43532 18.355 8.71944 17.6647 8.72126 16.9326V15.064C8.72126 12.0389 11.1817 9.57845 14.205 9.57845H16.0772C16.8075 9.57845 17.496 9.29433 18.015 8.77528L19.3245 7.46946C21.4535 5.32769 24.9321 5.31676 27.0775 7.44942L28.407 8.77893C28.9242 9.29433 29.6126 9.57845 30.343 9.57845H32.2152C35.2384 9.57845 37.6989 12.0389 37.6989 15.064V16.9344C37.7008 17.6647 37.9849 18.355 38.5003 18.874L39.8079 20.1817C40.8442 21.2125 41.4179 22.5857 41.4234 24.0518C41.427 25.5088 40.8661 26.8802 39.8443 27.9165C39.8261 27.9347 39.8097 27.9547 39.7915 27.9711L38.4985 29.2642C37.9849 29.7796 37.7008 30.4698 37.6989 31.202V33.0724C37.6989 36.0956 35.2384 38.5561 32.2152 38.5561H30.343C29.6126 38.5579 28.9224 38.8421 28.4052 39.3575L27.0957 40.6651C26.0285 41.7396 24.6188 42.2787 23.211 42.2787Z" fill="white"/>
<path d="M13.9365 29.2761C13.8777 29.2761 13.8287 29.2761 13.7896 29.2761C13.7602 29.2859 13.721 29.2908 13.672 29.2908C13.4369 29.2908 13.2508 29.2321 13.1137 29.1145C12.9863 29.0068 12.9227 28.8696 12.9227 28.7031C12.9227 28.517 13.0304 28.3309 13.2459 28.1448C13.863 27.8607 14.392 27.5032 14.8328 27.0722C15.2736 26.6412 15.6213 26.1221 15.876 25.5147C15.6605 25.5931 15.445 25.6519 15.2295 25.6911C15.014 25.7204 14.7936 25.7351 14.5683 25.7351C14.0491 25.7351 13.5986 25.6519 13.2165 25.4854C12.8443 25.3188 12.5309 25.1082 12.2762 24.8536C12.0215 24.5891 11.8305 24.2952 11.7032 23.972C11.5856 23.6487 11.5269 23.3304 11.5269 23.0169C11.5269 22.6545 11.6003 22.2921 11.7472 21.9297C11.8942 21.5574 12.1048 21.2293 12.379 20.9452C12.6631 20.6514 13.0108 20.4163 13.4222 20.24C13.8434 20.0539 14.3283 19.9608 14.8768 19.9608C15.3862 19.9608 15.827 20.0588 16.1992 20.2547C16.5714 20.4506 16.8751 20.7102 17.1102 21.0334C17.3453 21.3468 17.5167 21.7093 17.6244 22.1207C17.7322 22.5321 17.7763 22.9533 17.7567 23.3843C17.7567 24.021 17.6685 24.6332 17.4922 25.2209C17.3257 25.7988 17.0759 26.3425 16.7429 26.8518C16.4196 27.3514 16.018 27.8068 15.538 28.2183C15.0679 28.6297 14.534 28.9823 13.9365 29.2761ZM14.5536 24.4569C14.8573 24.4569 15.1609 24.3932 15.4646 24.2658C15.778 24.1385 16.0621 23.9769 16.3168 23.781C16.2972 23.781 16.2923 23.7369 16.3021 23.6487C16.3217 23.5508 16.3314 23.4577 16.3314 23.3696C16.3314 23.0953 16.307 22.8308 16.258 22.5762C16.209 22.3117 16.1257 22.0815 16.0082 21.8856C15.8907 21.6799 15.7339 21.5183 15.538 21.4007C15.3421 21.2734 15.0972 21.2097 14.8034 21.2097C14.5585 21.2097 14.3234 21.2587 14.0981 21.3566C13.8826 21.4448 13.6867 21.5721 13.5104 21.7387C13.3439 21.8954 13.2116 22.0864 13.1137 22.3117C13.0157 22.537 12.9668 22.777 12.9668 23.0316C12.9668 23.2569 13.0108 23.4577 13.099 23.6341C13.1969 23.8006 13.3194 23.9475 13.4663 24.0748C13.6132 24.2022 13.7798 24.3001 13.9659 24.3687C14.1618 24.4275 14.3577 24.4569 14.5536 24.4569Z" fill="white"/>
<path d="M21.0451 29.2761C20.9864 29.2761 20.9374 29.2761 20.8982 29.2761C20.8688 29.2859 20.8296 29.2908 20.7807 29.2908C20.5456 29.2908 20.3595 29.2321 20.2223 29.1145C20.095 29.0068 20.0313 28.8696 20.0313 28.7031C20.0313 28.517 20.1391 28.3309 20.3546 28.1448C20.9717 27.8607 21.5006 27.5032 21.9414 27.0722C22.3822 26.6412 22.7299 26.1221 22.9846 25.5147C22.7691 25.5931 22.5536 25.6519 22.3381 25.6911C22.1226 25.7204 21.9022 25.7351 21.6769 25.7351C21.1578 25.7351 20.7072 25.6519 20.3252 25.4854C19.953 25.3188 19.6395 25.1082 19.3848 24.8536C19.1302 24.5891 18.9391 24.2952 18.8118 23.972C18.6943 23.6487 18.6355 23.3304 18.6355 23.0169C18.6355 22.6545 18.709 22.2921 18.8559 21.9297C19.0028 21.5574 19.2134 21.2293 19.4877 20.9452C19.7717 20.6514 20.1195 20.4163 20.5309 20.24C20.9521 20.0539 21.4369 19.9608 21.9855 19.9608C22.4948 19.9608 22.9356 20.0588 23.3079 20.2547C23.6801 20.4506 23.9837 20.7102 24.2188 21.0334C24.4539 21.3468 24.6253 21.7093 24.7331 22.1207C24.8408 22.5321 24.8849 22.9533 24.8653 23.3843C24.8653 24.021 24.7771 24.6332 24.6008 25.2209C24.4343 25.7988 24.1845 26.3425 23.8515 26.8518C23.5282 27.3514 23.1266 27.8068 22.6467 28.2183C22.1765 28.6297 21.6427 28.9823 21.0451 29.2761ZM21.6622 24.4569C21.9659 24.4569 22.2695 24.3932 22.5732 24.2658C22.8867 24.1385 23.1707 23.9769 23.4254 23.781C23.4058 23.781 23.4009 23.7369 23.4107 23.6487C23.4303 23.5508 23.4401 23.4577 23.4401 23.3696C23.4401 23.0953 23.4156 22.8308 23.3666 22.5762C23.3176 22.3117 23.2344 22.0815 23.1168 21.8856C22.9993 21.6799 22.8426 21.5183 22.6467 21.4007C22.4508 21.2734 22.2059 21.2097 21.912 21.2097C21.6671 21.2097 21.4321 21.2587 21.2068 21.3566C20.9913 21.4448 20.7954 21.5721 20.619 21.7387C20.4525 21.8954 20.3203 22.0864 20.2223 22.3117C20.1244 22.537 20.0754 22.777 20.0754 23.0316C20.0754 23.2569 20.1195 23.4577 20.2076 23.6341C20.3056 23.8006 20.428 23.9475 20.575 24.0748C20.7219 24.2022 20.8884 24.3001 21.0745 24.3687C21.2704 24.4275 21.4663 24.4569 21.6622 24.4569Z" fill="white"/>
<path d="M32.8393 18.9911C32.9862 18.8539 33.1723 18.7854 33.3976 18.7854C33.5837 18.7854 33.7405 18.8441 33.8678 18.9617C34.0049 19.0792 34.0735 19.2262 34.0735 19.4025C34.0735 19.4515 34.0686 19.5004 34.0588 19.5494C34.049 19.5886 34.0343 19.6327 34.0147 19.6816L30.8557 24.2218L27.4764 29.0557C27.3882 29.1733 27.2854 29.2517 27.1678 29.2908C27.0503 29.33 26.9425 29.3496 26.8446 29.3496C26.6585 29.3496 26.4968 29.2957 26.3597 29.188C26.2324 29.0802 26.1687 28.9333 26.1687 28.7472C26.1687 28.6786 26.1785 28.6101 26.1981 28.5415C26.2177 28.4631 26.252 28.3848 26.3009 28.3064C26.8887 27.4836 27.447 26.6902 27.9759 25.9261C28.5049 25.1621 29.0338 24.403 29.5628 23.6487C30.0819 22.9043 30.6109 22.1501 31.1496 21.386C31.6883 20.622 32.2467 19.8286 32.8246 19.0058L32.8393 18.9911ZM25.4487 21.1363C25.4683 20.7738 25.5467 20.4604 25.6838 20.1959C25.821 19.9314 25.9924 19.711 26.1981 19.5347C26.4038 19.3584 26.6389 19.2311 26.9033 19.1527C27.1678 19.0645 27.4323 19.0205 27.6968 19.0205C27.971 19.0205 28.2404 19.0645 28.5049 19.1527C28.7694 19.2409 29.0044 19.3731 29.2101 19.5494C29.4256 19.7257 29.5971 19.9461 29.7244 20.2106C29.8517 20.4653 29.9154 20.7591 29.9154 21.0922C29.9154 21.4252 29.8468 21.7289 29.7097 22.0031C29.5824 22.2774 29.4109 22.5174 29.1954 22.7231C28.98 22.919 28.7351 23.0708 28.4608 23.1786C28.1865 23.2863 27.9025 23.3402 27.6086 23.3402C27.3539 23.3402 27.0993 23.2912 26.8446 23.1933C26.5997 23.0953 26.3744 22.9533 26.1687 22.7672C25.9728 22.5811 25.8063 22.3509 25.6691 22.0766C25.5418 21.8023 25.4683 21.4889 25.4487 21.1363ZM30.5031 27.0869C30.5227 26.7343 30.5962 26.4306 30.7235 26.1759C30.8606 25.9115 31.0321 25.696 31.2378 25.5294C31.4435 25.3531 31.6737 25.2258 31.9283 25.1474C32.183 25.0593 32.4426 25.0152 32.7071 25.0152C32.9715 25.0152 33.2311 25.0593 33.4858 25.1474C33.7503 25.2356 33.9853 25.3678 34.191 25.5441C34.4065 25.7107 34.578 25.9213 34.7053 26.1759C34.8326 26.4208 34.8963 26.7098 34.8963 27.0428C34.8963 27.3856 34.8326 27.6942 34.7053 27.9685C34.5878 28.2427 34.4261 28.4729 34.2204 28.659C34.0147 28.8451 33.7747 28.9872 33.5005 29.0851C33.236 29.1831 32.9617 29.2321 32.6777 29.2321C32.4328 29.2321 32.1879 29.188 31.943 29.0998C31.6981 29.0215 31.4729 28.8941 31.2672 28.7178C31.0615 28.5415 30.89 28.3211 30.7529 28.0566C30.6158 27.7824 30.5325 27.4591 30.5031 27.0869ZM27.638 20.2841C27.5205 20.2841 27.4176 20.3134 27.3294 20.3722C27.2511 20.4212 27.1825 20.4898 27.1237 20.5779C27.065 20.6563 27.016 20.7493 26.9768 20.8571C26.9474 20.955 26.9229 21.053 26.9033 21.1509C26.9327 21.4546 27.0258 21.675 27.1825 21.8121C27.3392 21.9493 27.5156 22.0178 27.7115 22.0178C27.8976 22.0178 28.069 21.9444 28.2257 21.7974C28.3922 21.6505 28.4755 21.4301 28.4755 21.1363C28.4755 20.9012 28.3873 20.7004 28.211 20.5338C28.0445 20.3673 27.8535 20.2841 27.638 20.2841ZM32.6924 26.3082C32.4377 26.3082 32.2565 26.3914 32.1487 26.5579C32.0508 26.7245 31.9871 26.9008 31.9577 27.0869C31.9871 27.371 32.0753 27.5865 32.2222 27.7334C32.3691 27.8705 32.5405 27.9391 32.7364 27.9391C32.903 27.9391 33.0646 27.8705 33.2213 27.7334C33.378 27.5865 33.4564 27.371 33.4564 27.0869C33.4564 26.842 33.378 26.651 33.2213 26.5139C33.0646 26.3767 32.8883 26.3082 32.6924 26.3082Z" fill="white"/>
</g>
<defs>
<clipPath id="clip0_137_2060">
<rect width="37" height="37" fill="white" transform="translate(5 5.84619)"/>
</clipPath>
</defs>
</svg>
